<svg width="46" height="46" fill="none"
  xmlns="http://www.w3.org/2000/svg">
  <path fill-rule="evenodd" clip-rule="evenodd" d="M28.956 20H25.84l-2.823 2.968h-3L22.956 20H19.84l-2.823 2.968h-3L16.956 20H15a2 2 0 0 0-2 2v8a2 2 0 0 0 2 2h16a2 2 0 0 0 2-2v-8a2 2 0 0 0-1.284-1.868l-2.698 2.835h-3L28.956 20zM13.741 18.093a1 1 0 1 0 .518 1.932l3.207-.86-1.31-.8 2.767-.74 1.35.788 2.988-.8-1.309-.8 2.766-.741 1.35.788 2.989-.8-1.31-.8 2.767-.741 1.325.774a1 1 0 0 0-.711-1.859l-17.387 4.66z" fill="currentColor"/>
</svg>