<svg width="46" height="46" fill="none"
  xmlns="http://www.w3.org/2000/svg">
  <path d="m31.936 19.995-.338 2.27a5.002 5.002 0 0 0 0 1.47l.338 2.27a3 3 0 0 1-1.866 3.231l-2.134.843a5 5 0 0 0-1.274.735l-1.796 1.427a3 3 0 0 1-3.732 0l-1.796-1.427a4.997 4.997 0 0 0-1.274-.735l-2.134-.843a3 3 0 0 1-1.866-3.231l.338-2.27a4.995 4.995 0 0 0 0-1.47l-.338-2.27a3 3 0 0 1 1.866-3.231l2.134-.843a5 5 0 0 0 1.274-.735l1.796-1.427a3 3 0 0 1 3.732 0l1.796 1.427a5 5 0 0 0 1.274.735l2.134.843a3 3 0 0 1 1.866 3.231z" stroke="currentColor" stroke-width="2"/>
  <circle cx="23" cy="23" r="3" stroke="currentColor" stroke-width="2"/>
</svg>