<svg width="48" height="48" fill="none"
  xmlns="http://www.w3.org/2000/svg">
  <path d="M17.696 24.703a1 1 0 0 1 0-1.406l9.593-9.693c.629-.635 1.711-.19 1.711.704v19.384c0 .894-1.082 1.339-1.71.704l-9.594-9.693z" fill="currentColor"/>
  <path d="M17 20a1 1 0 0 1 1-1h5v10h-5a1 1 0 0 1-1-1v-8z" fill="currentColor"/>
  <path fill-rule="evenodd" clip-rule="evenodd" d="M30.841 28.842C31.547 27.836 32 26.265 32 24.5c0-1.765-.453-3.336-1.159-4.342.21-.103.431-.158.659-.158 1.38 0 2.5 2.015 2.5 4.5S32.88 29 31.5 29c-.228 0-.449-.055-.659-.158z" fill="currentColor"/>
</svg>