<svg width="46" height="46" fill="none"
  xmlns="http://www.w3.org/2000/svg">
  <path d="M15.696 23.62a1 1 0 0 1 0-1.407l9.093-9.187c.629-.635 1.711-.19 1.711.703v18.375c0 .893-1.082 1.338-1.71.703l-9.094-9.187z" fill="currentColor"/>
  <path d="M15 19.125a1 1 0 0 1 1-1h4.75v9.583H16a1 1 0 0 1-1-1v-7.583z" fill="currentColor"/>
  <path fill-rule="evenodd" clip-rule="evenodd" d="M30 27.342c.705-1.006 1.159-2.577 1.159-4.342 0-1.765-.454-3.336-1.159-4.342.21-.103.43-.158.659-.158 1.38 0 2.5 2.015 2.5 4.5s-1.12 4.5-2.5 4.5c-.228 0-.45-.055-.659-.158z" fill="currentColor"/>
</svg>